
        <svg xmlns="http://www.w3.org/2000/svg" xmlns:xlink="http://www.w3.org/1999/xlink" version="1.1" width="3142.8571428571427" 
        height="2464.285714285714" viewBox="0 0 3142.8571428571427 2464.285714285714">
			
			<g transform="scale(7.142857142857143) translate(10, 10)">
				<defs id="SvgjsDefs1945"><linearGradient id="SvgjsLinearGradient1954"><stop id="SvgjsStop1955" stop-color="#8f5e25" offset="0"></stop><stop id="SvgjsStop1956" stop-color="#fbf4a1" offset="0.5"></stop><stop id="SvgjsStop1957" stop-color="#8f5e25" offset="1"></stop></linearGradient><linearGradient id="SvgjsLinearGradient1958"><stop id="SvgjsStop1959" stop-color="#8f5e25" offset="0"></stop><stop id="SvgjsStop1960" stop-color="#fbf4a1" offset="0.5"></stop><stop id="SvgjsStop1961" stop-color="#8f5e25" offset="1"></stop></linearGradient><linearGradient id="SvgjsLinearGradient1962"><stop id="SvgjsStop1963" stop-color="#8f5e25" offset="0"></stop><stop id="SvgjsStop1964" stop-color="#fbf4a1" offset="0.5"></stop><stop id="SvgjsStop1965" stop-color="#8f5e25" offset="1"></stop></linearGradient><linearGradient id="SvgjsLinearGradient1966"><stop id="SvgjsStop1967" stop-color="#8f5e25" offset="0"></stop><stop id="SvgjsStop1968" stop-color="#fbf4a1" offset="0.5"></stop><stop id="SvgjsStop1969" stop-color="#8f5e25" offset="1"></stop></linearGradient></defs><g id="SvgjsG1946" featureKey="rootContainer" transform="matrix(1,0,0,1,0,0)" fill="url(#SvgjsLinearGradient1954)"><path xmlns="http://www.w3.org/2000/svg" fill-rule="evenodd" d=" M0,0 H420 V325 H0,0 z M2,2 H418 V323 H2,2 z M6,6 H414 V319 H6 z M8,8 H412 V317 H6,8 z "></path></g><g id="SvgjsG1947" featureKey="dsJevG-0" transform="matrix(1.4804859582275276,0,0,1.4804859582275276,135.84911665364243,42.388821287772274)" fill="url(#SvgjsLinearGradient1958)"><g xmlns="http://www.w3.org/2000/svg"><path d="M92.984,45.661H7.187c-0.556,0-1.006,0.45-1.006,1.006c0,0.556,0.45,1.005,1.006,1.005c0.757,0,1.369,0.614,1.369,1.369   c0,1.713,1.389,3.102,3.102,3.102H27.53c-0.087,0.051-0.178,0.101-0.258,0.161c0,0,17.918,9.093,26.648,24.312   c2.774-0.629,8.223-1.48,14.331-0.376c1.351-5.747-1.136-11.422-1.136-13.403c0-2.021,0.569-6.819,6.231-10.694h15.167   c1.713,0,3.101-1.389,3.101-3.102c0-0.755,0.613-1.369,1.369-1.369c0.557,0,1.007-0.449,1.007-1.005   C93.991,46.111,93.541,45.661,92.984,45.661z M32.416,52.142h4.22c-0.148,0.043-0.292,0.095-0.431,0.161   c0,0,0.876,0.778,2.274,2.174C36.291,53.473,34.218,52.633,32.416,52.142z M38.645,52.142h3.123   c0.306,0.431,0.947,1.344,1.833,2.667C41.823,53.476,40.127,52.486,38.645,52.142z M44.384,52.142h5.178   c0.065,0.903,0.212,2.524,0.548,4.672C48.122,54.677,46.155,52.926,44.384,52.142z M60.528,61.385   c-0.604,1.542-2.417,1.64-4.914,0.938c-1.477-4.397-2.414-8.488-4.09-10.18h15.784C65.08,53.386,62.625,56.035,60.528,61.385z"></path><path d="M51.284,10.665c0.999-0.456,1.697-1.459,1.697-2.629c0-1.599-1.296-2.895-2.895-2.895c-1.599,0-2.895,1.296-2.895,2.895   c0,1.17,0.698,2.172,1.697,2.629C27.4,11.204,10.172,26.141,10.172,44.501H90C90,26.141,72.772,11.204,51.284,10.665z    M52.132,14.47c17.291,0.434,31.41,11.555,33.502,25.848h-3.926C81.708,26.293,68.547,14.882,52.132,14.47z"></path></g><path xmlns="http://www.w3.org/2000/svg" d="M50.075,81.038v13.271H72.46V81.038C62.157,77.835,50.075,81.038,50.075,81.038z M55.167,88.003  c-1.036,0-1.875-0.839-1.875-1.875s0.839-1.875,1.875-1.875c1.036,0,1.875,0.839,1.875,1.875S56.202,88.003,55.167,88.003z"></path></g><g id="SvgjsG1948" featureKey="0oZDye-0" transform="matrix(4.024886080181359,0,0,4.024886080181359,45.58538655777807,175.0694489146166)" fill="url(#SvgjsLinearGradient1962)"><path d="M10.871 8.939 c0 -0.8118 -1.2506 -1.888 -3.4436 -1.888 c-2.578 0 -4.5214 1.8076 -4.5214 6.369 c0 3.8214 1.5352 6.2442 4.5462 6.2442 c2.1696 0 3.6558 -1.433 4.0826 -2.3992 c0.06961 -0.13439 0.13021 -0.1626 0.19502 -0.1626 c0.1048 0 0.16961 0.0808 0.15381 0.18561 c-0.1268 0.442 -0.5606 1.0592 -1.2254 1.586 c-0.78 0.6668 -1.9428 1.255 -3.4504 1.255 c-3.9124 0 -6.111 -2.8532 -6.111 -6.709 c0 -4.3752 2.6524 -6.729 6.0682 -6.729 c2.9924 0 4.7544 1.6118 4.7544 3.2298 c0 0.947 -0.5104 1.3484 -0.99658 1.3484 c-0.458 0 -0.89602 -0.333 -0.89602 -0.8834 c0 -0.7172 0.8442 -0.87442 0.8442 -1.4468 z M20.0944 6.695 c3.7924 0 5.998 2.8256 5.998 6.6456 s-2.2056 6.7882 -5.998 6.7882 c-3.7966 0 -5.998 -2.9682 -5.998 -6.7882 s2.2014 -6.6456 5.998 -6.6456 z M20.0944 19.78558 c3.0958 0 4.1888 -3.0848 4.1888 -6.4448 s-1.093 -6.302 -4.1888 -6.302 s-4.1888 2.942 -4.1888 6.302 s1.093 6.4448 4.1888 6.4448 z M39.249 6.82 c0.089004 0 0.1582 0.064804 0.1582 0.15381 c0 0.093008 -0.069004 0.15781 -0.15801 0.15781 l-0.48 0 c-0.52 0 -0.7558 0.26 -0.92 0.7 l-4.7614 12.241 l-0.37801 0 l-4.7042 -12.261 c-0.1442 -0.36 -0.42 -0.68 -0.98 -0.68 l-0.44 0 c-0.089004 0 -0.15801 -0.064804 -0.15801 -0.15781 c0 -0.089004 0.069004 -0.15381 0.15801 -0.15381 l4.5034 0 c0.089004 0 0.15801 0.064804 0.15801 0.15381 c0 0.093008 -0.069004 0.15781 -0.15801 0.15781 l-0.72 0 c-0.402 0 -0.62738 0.303 -0.47998 0.7 l3.7674 9.8886 l3.832 -9.8886 c0.14 -0.3616 -0.08039 -0.7 -0.48 -0.7 l-0.72 0 c-0.089004 0 -0.15801 -0.064804 -0.15801 -0.15781 c0 -0.089004 0.069004 -0.15381 0.15801 -0.15381 l2.9606 0 z M44.846199999999996 15.1282 c0.093204 0 0.15801 0.064804 0.15801 0.15801 c0 0.089004 -0.064804 0.15381 -0.15801 0.15381 l-4.6882 0 c-0.093204 0 -0.15801 -0.064804 -0.15801 -0.15801 c0 -0.089004 0.064804 -0.15381 0.15801 -0.15381 l4.6882 0 z M55.129 16.3572 c0.089004 0 0.154 0.065234 0.154 0.15844 l0 3.4848 l-9.002 0 c-0.093008 0 -0.15781 -0.064804 -0.15781 -0.15801 c0 -0.089004 0.064804 -0.15381 0.15781 -0.15381 l0.51801 0 c0.2906 0 0.48122 -0.219 0.48122 -0.4618 l0 -11.631 c0 -0.2436 -0.1898 -0.4636 -0.48122 -0.4636 l-0.51801 0 c-0.093008 0 -0.15781 -0.064804 -0.15781 -0.15381 c0 -0.093204 0.064804 -0.15801 0.15781 -0.15801 l8.9234 0 l0 3.4848 c0 0.093204 -0.064804 0.15801 -0.15781 0.15801 c-0.089004 0 -0.15381 -0.064804 -0.15381 -0.15801 l0 -0.80961 c0 -1.38 -0.82 -2.3634 -2.46 -2.3634 l-2.9678 0 c-0.2906 0 -0.48122 0.2178 -0.48122 0.4618 l0 5.3726 l1.5878 0 c1.6304 0 1.811 -0.5676 1.811 -1.4958 l0 -0.18279 c0 -0.089004 0.069004 -0.15801 0.15801 -0.15801 s0.15801 0.069004 0.15801 0.15801 l0 3.6772 c0 0.089004 -0.069004 0.15801 -0.15801 0.15801 s-0.15801 -0.064804 -0.15801 -0.17041 l0 -0.19859 c0 -0.8918 -0.1724 -1.4676 -1.811 -1.4676 l-1.5878 0 l0 5.9386 c0 0.2444 0.1898 0.4634 0.48122 0.4634 l3.0462 0 c1.64 0 2.46 -0.9834 2.46 -2.3634 l0 -0.80961 c0 -0.093204 0.064804 -0.15801 0.15781 -0.15801 z M69.74900000000001 19.6882 c0.089004 0 0.15762 0.064804 0.15762 0.15801 c0 0.089004 -0.069004 0.15381 -0.15801 0.15381 l-4.5034 0 c-0.089004 0 -0.15801 -0.064804 -0.15801 -0.15381 c0 -0.093204 0.069004 -0.15801 0.15801 -0.15801 l0.72 0 c0.402 0 0.62738 -0.303 0.47998 -0.7 l-1.239 -3.249 l-5.1044 0 l-1.2558 3.249 c-0.14 0.3616 0.08039 0.7 0.48 0.7 l0.72 0 c0.089004 0 0.15801 0.064804 0.15801 0.15801 c0 0.089004 -0.069004 0.15381 -0.15801 0.15381 l-2.9606 0 c-0.089004 0 -0.15801 -0.064804 -0.15801 -0.15381 c0 -0.093204 0.069004 -0.15801 0.15801 -0.15801 l0.48 0 c0.52 0 0.7558 -0.26 0.92 -0.7 l4.7614 -12.241 l0.37801 0 l4.7042 12.261 c0.1442 0.36 0.42 0.68 0.98 0.68 l0.44 0 z M60.226800000000004 15.4316 l4.8658 0 l-2.4148 -6.332 z M80.602 6.82 l-0.00019531 3.4846 c0 0.093204 -0.064804 0.15801 -0.15801 0.15801 c-0.089004 0 -0.15381 -0.064804 -0.15381 -0.15801 l0 -0.80961 c0 -1.38 -0.82 -2.3634 -2.46 -2.3634 l-1.007 0 c-0.2906 0 -0.48122 0.219 -0.48122 0.4618 l0 11.631 c0 0.2436 0.1898 0.4636 0.48122 0.4636 l0.51801 0 c0.093204 0 0.15801 0.064804 0.15801 0.15381 c0 0.093204 -0.064804 0.15801 -0.15801 0.15801 l-3.702 0 c-0.093008 0 -0.15781 -0.064804 -0.15781 -0.15801 c0 -0.089004 0.064804 -0.15381 0.15781 -0.15381 l0.51801 0 c0.2906 0 0.48122 -0.2178 0.48122 -0.4618 l0 -11.631 c0 -0.2444 -0.1898 -0.4634 -0.48122 -0.4634 l-0.689 0 c-1.7986 0 -2.7772 0.8248 -2.7772 2.6806 l0 0.4924 c0 0.093204 -0.064804 0.15801 -0.15781 0.15801 c-0.089004 0 -0.15381 -0.064804 -0.15381 -0.15801 l0 -3.4848 l10.223 0 z"></path></g><g id="SvgjsG1949" featureKey="mo6dJk-0" transform="matrix(0.6166452390381243,0,0,0.6166452390381243,48.95170291721157,273.3987914158854)" fill="url(#SvgjsLinearGradient1966)"><path d="M10.8 6 c0.18 0 0.3 0.12 0.3 0.3 l0 1.1 c0 0.18 -0.12 0.3 -0.3 0.3 l-7.23 0 l0 4.28 l6.77 0 c0.18 0 0.3 0.12 0.3 0.3 l0 1.1 c0 0.18 -0.12 0.3 -0.3 0.3 l-6.77 0 l0 6.02 c0 0.18 -0.12 0.3 -0.3 0.3 l-1.27 0 c-0.18 0 -0.3 -0.12 -0.3 -0.3 l0 -13.4 c0 -0.18 0.12 -0.3 0.3 -0.3 l8.8 0 z M28.144499999999997 14.57 l2.68 5.08 c0.11 0.21 0.01 0.35 -0.22 0.35 l-1.32 0 c-0.16 0 -0.27 -0.07 -0.35 -0.22 l-2.58 -4.99 l-0.29 0 l-3.39 0 l0 4.91 c0 0.18 -0.12 0.3 -0.3 0.3 l-1.27 0 c-0.18 0 -0.3 -0.12 -0.3 -0.3 l0 -13.4 c0 -0.18 0.12 -0.3 0.3 -0.3 l4.96 0 c3.69 0 5.04 1.56 5.04 4.39 c0 2.22 -0.83 3.66 -2.96 4.18 z M22.6745 7.699999999999999 l0 5.39 l3.52 0 c1.86 0 3.1 -0.5 3.1 -2.7 c0 -2.19 -1.24 -2.69 -3.1 -2.69 l-3.52 0 z M47.32899999999999 20.26 c-3.96 0 -7.17 -3.2 -7.17 -7.2 c0 -4.02 3.21 -7.22 7.17 -7.22 c3.95 0 7.16 3.2 7.16 7.22 c0 4 -3.21 7.2 -7.16 7.2 z M47.32899999999999 18.49 c2.97 0 5.32 -2.4 5.32 -5.43 c0 -3.05 -2.35 -5.45 -5.32 -5.45 c-2.98 0 -5.33 2.4 -5.33 5.45 c0 3.03 2.35 5.43 5.33 5.43 z M78.1535 6 c0.18 0 0.3 0.12 0.3 0.3 l0 13.4 c0 0.18 -0.12 0.3 -0.3 0.3 l-1.27 0 c-0.18 0 -0.3 -0.12 -0.3 -0.3 l0 -10.15 l-4.29 10.22 c-0.06 0.16 -0.18 0.23 -0.34 0.23 l-1.24 0 c-0.16 0 -0.28 -0.07 -0.34 -0.23 l-4.26 -10.15 l0 10.08 c0 0.18 -0.12 0.3 -0.3 0.3 l-1.27 0 c-0.18 0 -0.3 -0.12 -0.3 -0.3 l0 -13.4 c0 -0.18 0.12 -0.3 0.3 -0.3 l1.59 0 c0.16 0 0.3 0.06 0.36 0.2 l4.85 11.69 l4.83 -11.69 c0.06 -0.14 0.2 -0.2 0.36 -0.2 l1.62 0 z M117.07249999999999 6 c0.18 0 0.3 0.12 0.3 0.3 l0 13.4 c0 0.18 -0.12 0.3 -0.3 0.3 l-1.27 0 c-0.18 0 -0.3 -0.12 -0.3 -0.3 l0 -10.15 l-4.29 10.22 c-0.06 0.16 -0.18 0.23 -0.34 0.23 l-1.24 0 c-0.16 0 -0.28 -0.07 -0.34 -0.23 l-4.26 -10.15 l0 10.08 c0 0.18 -0.12 0.3 -0.3 0.3 l-1.27 0 c-0.18 0 -0.3 -0.12 -0.3 -0.3 l0 -13.4 c0 -0.18 0.12 -0.3 0.3 -0.3 l1.59 0 c0.16 0 0.3 0.06 0.36 0.2 l4.85 11.69 l4.83 -11.69 c0.06 -0.14 0.2 -0.2 0.36 -0.2 l1.62 0 z M138.71699999999998 6 c0.24 0 0.33 0.15 0.2 0.36 l-5.25 8.21 l0 5.13 c0 0.18 -0.12 0.3 -0.3 0.3 l-1.27 0 c-0.18 0 -0.3 -0.12 -0.3 -0.3 l0 -5.13 l-5.26 -8.21 c-0.13 -0.21 -0.04 -0.36 0.2 -0.36 l1.47 0 c0.16 0 0.27 0.06 0.36 0.2 l4.16 6.51 l4.16 -6.51 c0.09 -0.14 0.2 -0.2 0.36 -0.2 l1.47 0 z M173.16599999999997 6 c0.18 0 0.3 0.12 0.3 0.3 l0 13.4 c0 0.18 -0.12 0.3 -0.3 0.3 l-1.27 0 c-0.18 0 -0.3 -0.12 -0.3 -0.3 l0 -5.99 l-7.09 0 l0 5.99 c0 0.18 -0.12 0.3 -0.3 0.3 l-1.27 0 c-0.18 0 -0.3 -0.12 -0.3 -0.3 l0 -13.4 c0 -0.18 0.12 -0.3 0.3 -0.3 l1.27 0 c0.18 0 0.3 0.12 0.3 0.3 l0 5.71 l7.09 0 l0 -5.71 c0 -0.18 0.12 -0.3 0.3 -0.3 l1.27 0 z M192.4705 18.3 c0.18 0 0.3 0.12 0.3 0.3 l0 1.1 c0 0.18 -0.12 0.3 -0.3 0.3 l-8.55 0 c-0.18 0 -0.3 -0.12 -0.3 -0.3 l0 -13.4 c0 -0.18 0.12 -0.3 0.3 -0.3 l8.53 0 c0.18 0 0.3 0.12 0.3 0.3 l0 1.1 c0 0.18 -0.12 0.3 -0.3 0.3 l-6.96 0 l0 4.15 l6.43 0 c0.18 0 0.3 0.12 0.3 0.3 l0 1.1 c0 0.18 -0.12 0.3 -0.3 0.3 l-6.43 0 l0 4.75 l6.98 0 z M213.79499999999996 19.66 c0.08 0.2 -0.02 0.34 -0.24 0.34 l-1.29 0 c-0.16 0 -0.27 -0.06 -0.34 -0.24 l-0.99 -2.69 l-6.42 0 l-0.99 2.69 c-0.07 0.18 -0.18 0.24 -0.34 0.24 l-1.29 0 c-0.22 0 -0.32 -0.14 -0.24 -0.34 l5.08 -13.42 c0.06 -0.16 0.2 -0.24 0.36 -0.24 l1.26 0 c0.16 0 0.3 0.08 0.36 0.24 z M205.12499999999997 15.42 l5.2 0 l-2.6 -7.08 z M230.36949999999996 14.57 l2.68 5.08 c0.11 0.21 0.01 0.35 -0.22 0.35 l-1.32 0 c-0.16 0 -0.27 -0.07 -0.35 -0.22 l-2.58 -4.99 l-0.29 0 l-3.39 0 l0 4.91 c0 0.18 -0.12 0.3 -0.3 0.3 l-1.27 0 c-0.18 0 -0.3 -0.12 -0.3 -0.3 l0 -13.4 c0 -0.18 0.12 -0.3 0.3 -0.3 l4.96 0 c3.69 0 5.04 1.56 5.04 4.39 c0 2.22 -0.83 3.66 -2.96 4.18 z M224.89949999999996 7.699999999999999 l0 5.39 l3.52 0 c1.86 0 3.1 -0.5 3.1 -2.7 c0 -2.19 -1.24 -2.69 -3.1 -2.69 l-3.52 0 z M252.58399999999997 6 c0.18 0 0.3 0.12 0.3 0.3 l0 1.1 c0 0.18 -0.12 0.3 -0.3 0.3 l-4.19 0 l0 12 c0 0.18 -0.12 0.3 -0.3 0.3 l-1.27 0 c-0.18 0 -0.3 -0.12 -0.3 -0.3 l0 -12 l-4.19 0 c-0.18 0 -0.3 -0.12 -0.3 -0.3 l0 -1.1 c0 -0.18 0.12 -0.3 0.3 -0.3 l10.25 0 z M286.643 6 c0.18 0 0.3 0.12 0.3 0.3 l0 1.1 c0 0.18 -0.12 0.3 -0.3 0.3 l-4.19 0 l0 12 c0 0.18 -0.12 0.3 -0.3 0.3 l-1.27 0 c-0.18 0 -0.3 -0.12 -0.3 -0.3 l0 -12 l-4.19 0 c-0.18 0 -0.3 -0.12 -0.3 -0.3 l0 -1.1 c0 -0.18 0.12 -0.3 0.3 -0.3 l10.25 0 z M303.1175 20.26 c-3.96 0 -7.17 -3.2 -7.17 -7.2 c0 -4.02 3.21 -7.22 7.17 -7.22 c3.95 0 7.16 3.2 7.16 7.22 c0 4 -3.21 7.2 -7.16 7.2 z M303.1175 18.49 c2.97 0 5.32 -2.4 5.32 -5.43 c0 -3.05 -2.35 -5.45 -5.32 -5.45 c-2.98 0 -5.33 2.4 -5.33 5.45 c0 3.03 2.35 5.43 5.33 5.43 z M345.7765 6 c0.24 0 0.33 0.15 0.2 0.36 l-5.25 8.21 l0 5.13 c0 0.18 -0.12 0.3 -0.3 0.3 l-1.27 0 c-0.18 0 -0.3 -0.12 -0.3 -0.3 l0 -5.13 l-5.26 -8.21 c-0.13 -0.21 -0.04 -0.36 0.2 -0.36 l1.47 0 c0.16 0 0.27 0.06 0.36 0.2 l4.16 6.51 l4.16 -6.51 c0.09 -0.14 0.2 -0.2 0.36 -0.2 l1.47 0 z M361.91100000000006 20.26 c-3.96 0 -7.17 -3.2 -7.17 -7.2 c0 -4.02 3.21 -7.22 7.17 -7.22 c3.95 0 7.16 3.2 7.16 7.22 c0 4 -3.21 7.2 -7.16 7.2 z M361.91100000000006 18.49 c2.97 0 5.32 -2.4 5.32 -5.43 c0 -3.05 -2.35 -5.45 -5.32 -5.45 c-2.98 0 -5.33 2.4 -5.33 5.45 c0 3.03 2.35 5.43 5.33 5.43 z M389.50550000000004 6 c0.18 0 0.3 0.12 0.3 0.3 l0 8.04 c0 3.98 -2.15 5.95 -5.67 5.95 c-3.51 0 -5.66 -1.97 -5.66 -5.95 l0 -8.04 c0 -0.18 0.12 -0.3 0.3 -0.3 l1.27 0 c0.18 0 0.3 0.12 0.3 0.3 l0 8.04 c0 2.83 1.5 4.18 3.79 4.18 c2.3 0 3.8 -1.35 3.8 -4.18 l0 -8.04 c0 -0.18 0.12 -0.3 0.3 -0.3 l1.27 0 z M406.95000000000005 14.57 l2.68 5.08 c0.11 0.21 0.01 0.35 -0.22 0.35 l-1.32 0 c-0.16 0 -0.27 -0.07 -0.35 -0.22 l-2.58 -4.99 l-0.29 0 l-3.39 0 l0 4.91 c0 0.18 -0.12 0.3 -0.3 0.3 l-1.27 0 c-0.18 0 -0.3 -0.12 -0.3 -0.3 l0 -13.4 c0 -0.18 0.12 -0.3 0.3 -0.3 l4.96 0 c3.69 0 5.04 1.56 5.04 4.39 c0 2.22 -0.83 3.66 -2.96 4.18 z M401.48 7.699999999999999 l0 5.39 l3.52 0 c1.86 0 3.1 -0.5 3.1 -2.7 c0 -2.19 -1.24 -2.69 -3.1 -2.69 l-3.52 0 z M443.71900000000005 6 c0.18 0 0.3 0.12 0.3 0.3 l0 1.1 c0 0.18 -0.12 0.3 -0.3 0.3 l-4.19 0 l0 12 c0 0.18 -0.12 0.3 -0.3 0.3 l-1.27 0 c-0.18 0 -0.3 -0.12 -0.3 -0.3 l0 -12 l-4.19 0 c-0.18 0 -0.3 -0.12 -0.3 -0.3 l0 -1.1 c0 -0.18 0.12 -0.3 0.3 -0.3 l10.25 0 z M464.6435000000001 19.66 c0.08 0.2 -0.02 0.34 -0.24 0.34 l-1.29 0 c-0.16 0 -0.27 -0.06 -0.34 -0.24 l-0.99 -2.69 l-6.42 0 l-0.99 2.69 c-0.07 0.18 -0.18 0.24 -0.34 0.24 l-1.29 0 c-0.22 0 -0.32 -0.14 -0.24 -0.34 l5.08 -13.42 c0.06 -0.16 0.2 -0.24 0.36 -0.24 l1.26 0 c0.16 0 0.3 0.08 0.36 0.24 z M455.97350000000006 15.42 l5.2 0 l-2.6 -7.08 z M480.68800000000005 12.440000000000001 c1.97 0.45 2.84 1.88 2.84 3.53 c0 2.77 -1.56 4.03 -4.97 4.03 l-4.63 0 c-0.18 0 -0.3 -0.12 -0.3 -0.3 l0 -13.4 c0 -0.18 0.12 -0.3 0.3 -0.3 l4.77 0 c3.13 0 4.13 1.7 4.13 3.39 c0 1.43 -0.65 2.59 -2.14 3.05 z M481.0280000000001 9.55 c0 -1.29 -0.81 -1.85 -2.5 -1.85 l-3.03 0 l0 4.05 l3.1 0 c1.63 0 2.43 -0.81 2.43 -2.2 z M478.5280000000001 18.3 c2.06 0 3.1 -0.62 3.1 -2.43 c0 -1.48 -0.88 -2.52 -3.02 -2.52 l-3.11 0 l0 4.95 l3.03 0 z M501.7325 18.3 c0.18 0 0.3 0.12 0.3 0.3 l0 1.1 c0 0.18 -0.12 0.3 -0.3 0.3 l-8.45 0 c-0.18 0 -0.3 -0.12 -0.3 -0.3 l0 -13.4 c0 -0.18 0.12 -0.3 0.3 -0.3 l1.27 0 c0.18 0 0.3 0.12 0.3 0.3 l0 12 l6.88 0 z M520.337 18.3 c0.18 0 0.3 0.12 0.3 0.3 l0 1.1 c0 0.18 -0.12 0.3 -0.3 0.3 l-8.55 0 c-0.18 0 -0.3 -0.12 -0.3 -0.3 l0 -13.4 c0 -0.18 0.12 -0.3 0.3 -0.3 l8.53 0 c0.18 0 0.3 0.12 0.3 0.3 l0 1.1 c0 0.18 -0.12 0.3 -0.3 0.3 l-6.96 0 l0 4.15 l6.43 0 c0.18 0 0.3 0.12 0.3 0.3 l0 1.1 c0 0.18 -0.12 0.3 -0.3 0.3 l-6.43 0 l0 4.75 l6.98 0 z"></path></g>
			</g>
		</svg>
	